<svg xmlns="http://www.w3.org/2000/svg" version="1" viewBox="0 0 66 33"><path fill="none" d="M0 0h66v33H0z" pointer-events="none"/><path fill="none" d="M0-1z"/><g class="currentLayer"><g class="selected"><path fill="none" stroke="#5b5b5b" stroke-width="8" d="M1876 3770c-80 0-163-15-249-44a700 700 0 0 1-402-359c-43-88-64-189-64-300V238H220v2825c0 289 51 540 153 751 102 212 233 386 394 523s338 238 530 305c193 67 381 101 563 101s371-34 567-101c1045-358 1098-1318 1098-1798h-933c-2 206-18 410-77 523-45 87-101 161-168 220a737 737 0 0 1-471 183z" class="fil1 str0" transform="matrix(.0049 0 0 .00494 0 -1)"/><path fill="#5b5b5b" d="M9.192 17.624a3.79 3.79 0 0 1-1.22-.218 3.43 3.458 0 0 1-1.97-1.773c-.21-.435-.313-.934-.313-1.482V.176H1.078V14.13c0 1.428.25 2.668.75 3.71.5 1.047 1.141 1.907 1.93 2.584S5.415 21.6 6.355 21.93c.946.331 1.867.5 2.759.5s1.818-.169 2.778-.5c5.12-1.768 5.38-6.51 5.38-8.882h-4.571c-.01 1.018-.088 2.026-.378 2.584-.22.43-.494.795-.823 1.087a3.611 3.64 0 0 1-2.308.904z" class="fil2"/><path fill="#5b5b5b" d="M12.907 6.188h-7.61v-.153h7.61l.073.079-.073.074zm0-.153h.073v.079l-.073-.08zm-.079 4.777V6.114h.152v4.698l-.073.079-.079-.08zm.152 0v.079h-.073l.073-.08zm-7.683-.075h7.61v.154h-7.61l-.074-.08.074-.074zm0 .154h-.074v-.08l.074.08zm.078-4.777v4.698h-.152V6.114l.074-.08.078.08zm-.152 0v-.08h.074l-.074.08z" class="fil2"/><path fill="#5b5b5b" d="M5.297 6.114h7.61v4.698h-7.61z" class="fil3"/><path fill="none" stroke="#5b5b5b" stroke-width="8" d="M7832 3088c0-80-15-163-44-249-30-86-74-164-136-233a708 708 0 0 0-223-169c-89-43-189-64-301-64h-727v1423h727c112 0 212-23 301-69a745 745 0 0 0 355-394c32-83 48-164 48-245zM5468 1432h1656c290 0 540 51 752 153s386 233 523 394a1714 1714 0 0 1 406 1093 1751 1751 0 0 1-409 1109 1585 1585 0 0 1-521 406 1564 1564 0 0 1-745 149h-729v1174h-933V1432z" class="fil1 str0" transform="matrix(.0049 0 0 .00494 0 -1)"/><path fill="#5b5b5b" d="M38.377 14.255c0-.395-.074-.806-.216-1.23a3.35 3.35 0 0 0-.666-1.151 3.47 3.498 0 0 0-1.093-.835c-.436-.213-.926-.316-1.475-.316h-3.562v7.03h3.562c.549 0 1.039-.114 1.475-.342a3.65 3.68 0 0 0 1.74-1.946c.156-.41.235-.81.235-1.21zm-11.584-8.18h8.115c1.42 0 2.646.251 3.684.755s1.892 1.15 2.563 1.946a8.399 8.467 0 0 1 1.99 5.4 8.58 8.65 0 0 1-2.005 5.478 7.766 7.83 0 0 1-2.552 2.006 7.664 7.726 0 0 1-3.651.736h-3.572v5.8h-4.572V6.073z" class="fil2"/><path fill="none" stroke="#5b5b5b" stroke-width="8" d="M7832 3088c0-80-15-163-44-249-30-86-74-164-136-233a708 708 0 0 0-223-169c-89-43-189-64-301-64h-727v1423h727c112 0 212-23 301-69a745 745 0 0 0 355-394c32-83 48-164 48-245zM5468 1432h1656c290 0 540 51 752 153s386 233 523 394a1714 1714 0 0 1 406 1093 1751 1751 0 0 1-409 1109 1585 1585 0 0 1-521 406 1564 1564 0 0 1-745 149h-729v1174h-933V1432z" class="fil1 str0" transform="matrix(.0049 0 0 .00494 0 -1)"/><path fill="#5b5b5b" d="M38.377 14.255c0-.395-.074-.806-.216-1.23a3.35 3.35 0 0 0-.666-1.151 3.47 3.498 0 0 0-1.093-.835c-.436-.213-.926-.316-1.475-.316h-3.562v7.03h3.562c.549 0 1.039-.114 1.475-.342a3.65 3.68 0 0 0 1.74-1.946c.156-.41.235-.81.235-1.21zm-11.584-8.18h8.115c1.42 0 2.646.251 3.684.755s1.892 1.15 2.563 1.946a8.399 8.467 0 0 1 1.99 5.4 8.58 8.65 0 0 1-2.005 5.478 7.766 7.83 0 0 1-2.552 2.006 7.664 7.726 0 0 1-3.651.736h-3.572v5.8h-4.572V6.073zm-7.159.063V22.45h-.382V6.138l.191-.187.191.187zm-.382 0v-.187h.191l-.19.187zm4.464.193h-4.273v-.38h4.273l.191.187-.191.193zm0-.38h.191v.187l-.191-.187zm-.186 16.5V6.137h.377V22.45l-.191.193-.186-.193zm.377 0v.192h-.191l.191-.193zm-4.464-.193h4.273v.385h-4.273l-.19-.193.19-.192zm0 .385h-.19v-.193l.19.193z" class="fil2"/><path fill="#5b5b5b" d="M19.443 22.45V6.138h4.273V22.45z" class="fil2"/><path fill="none" stroke="#5b5b5b" stroke-width="8" d="M7832 3088c0-80-15-163-44-249-30-86-74-164-136-233a708 708 0 0 0-223-169c-89-43-189-64-301-64h-727v1423h727c112 0 212-23 301-69a745 745 0 0 0 355-394c32-83 48-164 48-245zM5468 1432h1656c290 0 540 51 752 153s386 233 523 394a1714 1714 0 0 1 406 1093 1751 1751 0 0 1-409 1109 1585 1585 0 0 1-521 406 1564 1564 0 0 1-745 149h-729v1174h-933V1432z" class="fil1 str0" transform="matrix(.0049 0 0 .00494 0 -1)"/><path fill="#5b5b5b" d="M38.377 14.255c0-.395-.074-.806-.216-1.23a3.35 3.35 0 0 0-.666-1.151 3.47 3.498 0 0 0-1.093-.835c-.436-.213-.926-.316-1.475-.316h-3.562v7.03h3.562c.549 0 1.039-.114 1.475-.342a3.65 3.68 0 0 0 1.74-1.946c.156-.41.235-.81.235-1.21zm-11.584-8.18h8.115c1.42 0 2.646.251 3.684.755s1.892 1.15 2.563 1.946a8.399 8.467 0 0 1 1.99 5.4 8.58 8.65 0 0 1-2.005 5.478 7.766 7.83 0 0 1-2.552 2.006 7.664 7.726 0 0 1-3.651.736h-3.572v5.8h-4.572V6.073z" class="fil2"/><path fill="none" stroke="#5b5b5b" stroke-width="8" d="M10807 4747V1445h872v3302z" class="fil1 str1" transform="matrix(.0049 0 0 .00494 0 -1)"/><path fill="#5b5b5b" d="M52.954 22.45V6.138h4.273V22.45z" class="fil2"/><path fill="none" stroke="#5b5b5b" stroke-width="8" d="M9257 4747V238h873v4509z" class="fil1 str1" transform="matrix(.0049 0 0 .00494 0 -1)"/><path fill="#5b5b5b" d="M45.36 22.45V.176h4.277V22.45z" class="fil2"/><path fill="#ef7f1a" d="m63.2 21.986 2.778 2.643-.832.879-.838.82-.843.77-.853.717-.852.662-.863.603-.862.553-.877.499-.877.44-.887.38-.897.326-.897.262-.906.207-.907.144-.911.084-.907.024-.911-.04-.907-.098-.906-.158-.897-.222-.892-.277-.886-.331-.878-.39-.867-.445-.867-.494-.853-.548-.847-.603-.843-.652-.838-.702-.828-.75-.828-.8-.819-.85 2.76-2.668.734.766.735.706.725.662.725.608.716.553.715.504.706.454.7.4.691.356.686.306.682.252.67.213.672.163.662.113.661.075.657.03.661-.02.662-.06.661-.104.667-.153.676-.197.681-.247.686-.302.696-.345.7-.4.711-.45.72-.509.725-.558.73-.618.736-.672.744-.726z"/><path fill="none" stroke="#5b5b5b" stroke-width="31" d="M3968 228h872v873h-872z" class="fil0" transform="matrix(.0049 0 0 .00494 0 -1)"/><path fill="#5b5b5b" d="M19.443.126h4.273V4.44h-4.273z" class="fil3"/><path fill="#ef7f1a" d="M52.758-.012h4.665v4.703h-4.665z"/></g></g></svg>